# xmcd CD database file
#
# Track frame offsets:
#        150
#        17315
#        35417
#
# Disc length: 736 seconds
#
# Revision: 0
# Processed by: cddbd v1.5.2PL0 Copyright (c) Steve Scherf et al.
# Submitted via: CUERipper 2.1.4
#
DISCID=1402de03
DTITLE=Pru - Aaroma Promo Single
DYEAR=2001
DGENRE=Electronic, Hip Hop
TTITLE0=Aaroma (Bonus Version)
TTITLE1=Aaroma (Hani Num Remix - Radio Version)
TTITLE2=Aaroma (Album Version)
EXTD=
EXTT0=
EXTT1=
EXTT2=
PLAYORDER=
